<?xml version="1.0" standalone="no"?>
<!DOCTYPE svg PUBLIC "-//W3C//DTD SVG 20010904//EN"
 "http://www.w3.org/TR/2001/REC-SVG-20010904/DTD/svg10.dtd">
<svg version="1.0" xmlns="http://www.w3.org/2000/svg"
 width="499.000000pt" height="499.000000pt" viewBox="0 0 499.000000 499.000000"
 preserveAspectRatio="xMidYMid meet">

<g transform="translate(0.000000,499.000000) scale(0.100000,-0.100000)"
fill="#000000" stroke="none">
<path d="M1662 3785 c-99 -24 -162 -100 -182 -220 -5 -33 -10 -112 -10 -175 0
-130 -19 -222 -52 -258 -12 -12 -39 -28 -61 -34 -51 -15 -77 -50 -77 -103 0
-47 23 -75 79 -94 87 -29 101 -68 111 -301 9 -202 20 -251 70 -312 43 -52 105
-77 208 -84 79 -6 89 -4 114 15 34 27 44 71 24 109 -18 35 -32 41 -115 52 -49
6 -70 15 -90 34 -25 26 -26 31 -33 199 -9 219 -24 279 -92 355 l-30 32 31 33
c65 69 83 137 90 345 5 145 8 166 27 195 24 36 71 56 133 56 33 1 46 7 62 27
35 44 22 111 -26 133 -31 14 -114 13 -181 -4z"/>
<path d="M3116 3777 c-34 -34 -35 -86 -3 -122 18 -20 34 -26 86 -32 75 -7 115
-35 131 -91 5 -20 10 -93 10 -162 0 -178 24 -268 87 -335 l28 -30 -37 -48
c-57 -73 -69 -127 -77 -327 -6 -160 -8 -178 -29 -207 -17 -24 -34 -34 -73 -42
-27 -6 -60 -11 -73 -11 -62 0 -89 -98 -40 -147 25 -25 29 -26 108 -20 225 16
284 114 286 467 0 142 30 203 114 235 45 17 76 56 76 97 0 40 -36 86 -72 93
-80 15 -117 86 -118 225 -1 151 -16 283 -38 332 -42 95 -116 138 -253 146 -84
4 -88 4 -113 -21z"/>
<path d="M2375 3539 c-23 -48 -38 -65 -70 -81 -22 -12 -57 -32 -79 -47 -34
-22 -51 -26 -114 -26 l-75 0 -48 -80 c-26 -44 -48 -84 -49 -90 0 -5 19 -37 41
-70 39 -56 42 -64 44 -138 3 -77 2 -80 -40 -149 -28 -45 -41 -76 -37 -86 18
-44 86 -154 98 -159 7 -2 50 0 96 5 65 8 86 8 98 -3 8 -7 34 -22 58 -34 23
-12 42 -28 42 -37 0 -8 15 -44 33 -79 l32 -64 105 0 105 0 33 67 c18 37 32 73
32 79 0 7 19 22 43 34 23 12 49 27 57 34 12 11 33 11 103 3 104 -12 97 -16
156 92 l40 76 -35 59 c-20 33 -40 62 -45 65 -4 3 -7 42 -6 86 2 75 5 85 45
151 l42 71 -48 84 -48 83 -80 0 c-71 0 -83 3 -115 28 -20 15 -54 36 -75 46
-27 14 -46 34 -70 77 l-33 59 -103 3 -104 3 -29 -62z m236 -165 c271 -78 358
-416 160 -614 -75 -75 -135 -102 -238 -108 -100 -5 -169 14 -239 67 -186 141
-206 400 -44 562 97 97 230 131 361 93z"/>
<path d="M3868 3239 c-17 -9 -18 -49 -18 -603 0 -562 -1 -594 -18 -609 -17
-16 -123 -17 -1325 -17 l-1306 0 -15 22 c-14 20 -16 93 -16 599 0 629 2 604
-57 597 l-28 -3 -3 -747 -2 -748 1425 0 1425 0 0 750 c0 731 0 750 -19 760
-23 12 -22 12 -43 -1z"/>
<path d="M792 1523 c9 -158 109 -284 260 -328 48 -14 207 -15 1484 -13 l1429
3 67 33 c121 60 197 173 206 309 l5 73 -677 0 -676 0 0 -50 c0 -41 -5 -56 -29
-82 l-29 -33 -303 -3 c-318 -3 -345 0 -374 42 -9 11 -15 43 -15 73 l0 53 -676
0 -676 0 4 -77z"/>
</g>
</svg>
