<?xml version="1.0" standalone="no"?>
<!DOCTYPE svg PUBLIC "-//W3C//DTD SVG 20010904//EN"
 "http://www.w3.org/TR/2001/REC-SVG-20010904/DTD/svg10.dtd">
<svg version="1.0" xmlns="http://www.w3.org/2000/svg"
 width="411.000000pt" height="360.000000pt" viewBox="0 0 411.000000 360.000000"
 preserveAspectRatio="xMidYMid meet">

<g transform="translate(0.000000,360.000000) scale(0.100000,-0.100000)"
fill="#EEEEEE" stroke="none">
<path d="M1807 3220 c-649 -118 -1126 -640 -1187 -1298 -42 -461 154 -930 515
-1229 281 -234 609 -344 980 -330 444 17 827 221 1102 586 308 408 363 992
138 1468 -89 188 -192 325 -350 464 -184 162 -391 268 -635 326 -150 35 -408
41 -563 13z m534 -263 c183 -48 334 -125 473 -241 73 -61 196 -191 196 -208 0
-3 -24 -19 -52 -35 -29 -16 -154 -88 -278 -160 -124 -72 -241 -140 -260 -150
-37 -22 -526 -304 -1105 -639 l-350 -203 -18 42 c-32 72 -66 218 -77 326 -34
339 93 698 332 941 145 147 333 260 523 315 133 38 183 44 360 41 131 -3 177
-8 256 -29z m825 -724 c30 -72 63 -218 74 -325 21 -215 -19 -430 -120 -633
-65 -132 -117 -206 -216 -308 -443 -453 -1161 -480 -1635 -60 -66 58 -169 170
-169 183 0 4 84 56 188 115 319 184 431 249 617 357 99 58 259 150 355 206 96
55 330 191 520 301 190 110 351 200 357 201 7 0 20 -17 29 -37z"/>
</g>
</svg>
